<?xml version="1.0" encoding="UTF-8" standalone="no"?>
<!-- Created with Inkscape (http://www.inkscape.org/) -->

<svg
   width="256mm"
   height="128mm"
   viewBox="0 0 256 128"
   version="1.1"
   id="svg12"
   inkscape:version="1.1.1 (3bf5ae0d25, 2021-09-20)"
   sodipodi:docname="java.svg"
   xmlns:inkscape="http://www.inkscape.org/namespaces/inkscape"
   xmlns:sodipodi="http://sodipodi.sourceforge.net/DTD/sodipodi-0.dtd"
   xmlns:xlink="http://www.w3.org/1999/xlink"
   xmlns="http://www.w3.org/2000/svg"
   xmlns:svg="http://www.w3.org/2000/svg">
  <sodipodi:namedview
     id="namedview14"
     pagecolor="#ffffff"
     bordercolor="#666666"
     borderopacity="1.0"
     inkscape:pageshadow="2"
     inkscape:pageopacity="0.0"
     inkscape:pagecheckerboard="0"
     inkscape:document-units="mm"
     showgrid="false"
     width="256mm"
     inkscape:zoom="0.64052329"
     inkscape:cx="228.71924"
     inkscape:cy="121.77543"
     inkscape:window-width="2240"
     inkscape:window-height="1306"
     inkscape:window-x="-11"
     inkscape:window-y="-11"
     inkscape:window-maximized="1"
     inkscape:current-layer="layer1" />
  <defs
     id="defs9">
    <linearGradient
       inkscape:collect="always"
       id="linearGradient83">
      <stop
         style="stop-color:#6a11cb;stop-opacity:1"
         offset="0"
         id="stop79" />
      <stop
         style="stop-color:#2575fc;stop-opacity:1"
         offset="1"
         id="stop81" />
    </linearGradient>
    <linearGradient
       inkscape:collect="always"
       xlink:href="#linearGradient83"
       id="linearGradient85"
       x1="-0.00029694422"
       y1="64"
       x2="256.0003"
       y2="64"
       gradientUnits="userSpaceOnUse" />
  </defs>
  <g
     inkscape:label="图层 1"
     inkscape:groupmode="layer"
     id="layer1">
    <path
       id="path6"
       style="stroke-width:1.98159;fill-opacity:1;fill:url(#linearGradient85)"
       d="M 161.86281,94.210372 V 58.173129 c 0,-9.194584 -5.1482,-15.444527 -18.01866,-15.444527 -7.35166,0 -13.60561,1.838915 -19.12235,4.042448 l 1.83887,6.618516 c 4.04246,-1.470343 9.19462,-2.942664 14.70943,-2.942664 6.98709,0 10.29631,2.942664 10.29631,8.826012 v 4.7796 h -3.67786 c -17.65001,0 -25.76067,6.618517 -25.76067,17.283451 0,8.826009 5.51676,13.974182 15.44452,13.974182 6.25191,0 11.03155,-2.942662 15.44458,-6.618514 l 0.73323,5.516752 h 8.09087 z m -10.2964,-11.766697 c -3.67786,3.309258 -7.72226,5.148174 -11.40012,5.148174 -4.77956,0 -7.72225,-2.942663 -7.72225,-8.090837 0,-5.148181 2.94269,-8.826019 14.70935,-8.826019 h 4.41302 v 11.766695 z m 44.86328,11.766697 h -12.87045 l -15.4445,-50.378023 h 11.03147 l 9.56123,30.889062 2.2055,9.194586 c 4.78158,-13.237033 8.45743,-26.84463 9.92776,-40.08167 h 11.03156 c -2.94269,16.546295 -8.08886,34.564914 -15.44459,50.378022 z m 59.57061,0 V 58.173129 c 0,-9.194584 -5.1482,-15.444527 -18.01857,-15.444527 -7.35176,0 -13.60563,1.838915 -19.12238,4.042448 l 1.47034,6.618516 c 4.41295,-1.470343 9.56115,-2.942664 15.07594,-2.942664 6.98711,0 10.29633,2.942664 10.29633,8.826012 v 4.7796 h -3.6778 c -17.65008,0 -25.76074,6.618517 -25.76074,17.283451 0,8.826009 5.1482,13.974182 15.07595,13.974182 6.61854,0 11.40013,-2.942662 15.81315,-6.618514 l 0.73321,5.516752 h 8.0909 z M 245.70398,82.443674 c -3.67786,3.309258 -7.72225,5.148173 -11.40011,5.148173 -4.77964,0 -7.72227,-2.942661 -7.72227,-8.090835 0,-5.148181 2.94068,-8.826019 14.70935,-8.826019 h 4.41303 V 82.441688 Z M 110.74956,102.66583 c -2.94262,4.413 -7.35168,7.72226 -12.870453,9.56117 l -4.78151,-5.88531 c 3.67778,-2.20552 7.355643,-5.51478 8.825983,-8.45745 1.47033,-2.576071 1.83889,-6.25192 1.83889,-14.70936 V 25.807784 h 11.03156 v 56.629944 c 0,11.400102 -1.10373,15.813101 -4.04244,20.224132 z M 44.578247,15.773001 c 0,0 9.84853,10.007036 -9.37294,25.092897 -15.40489,12.226433 -3.49354,19.217484 0,27.157729 -9.05186,-8.098768 -15.56335,-15.24637 -11.09685,-21.916414 6.49562,-9.844552 24.44094,-14.610282 20.46979,-30.334212 z m -5.08273,45.580581 c 4.6052,5.241314 -1.26827,10.007042 -1.26827,10.007042 0,0 11.75085,-6.035931 6.35303,-13.500585 -4.92427,-7.147605 -8.73492,-10.641149 11.90932,-22.55052 0,0 -32.55752,8.100744 -16.99408,26.046048 z m -16.83367,27.952344 c 0,0 -3.65209,2.223344 2.54044,2.859442 7.46462,0.951166 11.43374,0.792636 19.69306,-0.792642 a 29.783333,29.783333 0 0 0 5.24131,2.540402 C 31.555237,101.85338 8.0476269,93.437546 22.659897,89.307906 Z m -2.38187,-10.324094 c 0,0 -3.97107,3.017963 2.22332,3.652075 8.10078,0.792633 14.45179,0.951163 25.41196,-1.268226 a 9.6899869,9.6899868 0 0 0 3.81058,2.381881 c -22.39197,6.670037 -47.4868401,0.634136 -31.44781,-4.763751 z m 43.83279,18.105805 c 0,0 2.70093,2.22334 -3.01797,3.971133 -10.64111,3.17648 -44.62937,4.12962 -54.1568901,0 -3.33499,-1.426762 3.01796,-3.493563 5.0828201,-3.810611 2.06476,-0.475589 3.17651,-0.475589 3.17651,-0.475589 -3.65209,-2.540403 -24.3003001,5.24131 -10.5025001,7.46465 37.9574501,6.19447 69.2447601,-2.69892 59.3982601,-7.14759 z M 24.409597,68.182156 c 0,0 -17.3111801,4.129634 -6.19441,5.558366 4.76369,0.634132 14.13468,0.475583 22.86757,-0.158553 7.14759,-0.634134 14.29324,-1.906289 14.29324,-1.906289 0,0 -2.54045,1.109693 -4.28818,2.223341 C 33.459587,78.504244 -0.37017307,76.439424 9.3158169,71.675679 17.575137,67.704567 24.403687,68.182132 24.403687,68.182132 Z m 30.97231,17.31119 c 17.78677,-9.214405 9.53149,-18.10581 3.8126,-16.994135 -1.42676,0.31703 -2.06486,0.634133 -2.06486,0.634133 0,0 0.47558,-0.951165 1.5853,-1.268225 11.27527,-3.971111 20.17262,11.909373 -3.65209,18.105811 0,0 0.15877,-0.158552 0.31681,-0.475581 z m -29.22449,25.092904 c 17.15264,1.10969 43.35721,-0.63412 43.99135,-8.73485 0,0 -1.26827,3.17648 -14.13475,5.55835 -14.6122,2.70092 -32.69624,2.3819 -43.35721,0.63414 0,0 2.22332,1.90631 13.49858,2.5404 z" />
  </g>
</svg>
