<?xml version="1.0" encoding="UTF-8" standalone="no"?>
<!-- Created with Inkscape (http://www.inkscape.org/) -->

<svg
   width="512"
   height="512"
   viewBox="0 0 135.46666 135.46667"
   version="1.1"
   id="svg5"
   inkscape:version="1.1.1 (3bf5ae0d25, 2021-09-20)"
   sodipodi:docname="java-logo.svg"
   xmlns:inkscape="http://www.inkscape.org/namespaces/inkscape"
   xmlns:sodipodi="http://sodipodi.sourceforge.net/DTD/sodipodi-0.dtd"
   xmlns:xlink="http://www.w3.org/1999/xlink"
   xmlns="http://www.w3.org/2000/svg"
   xmlns:svg="http://www.w3.org/2000/svg">
  <sodipodi:namedview
     id="namedview7"
     pagecolor="#ffffff"
     bordercolor="#666666"
     borderopacity="1.0"
     inkscape:pageshadow="2"
     inkscape:pageopacity="0.0"
     inkscape:pagecheckerboard="0"
     inkscape:document-units="mm"
     showgrid="false"
     units="px"
     width="512px"
     height="512px"
     inkscape:zoom="0.32026164"
     inkscape:cx="1131.887"
     inkscape:cy="952.34634"
     inkscape:window-width="2240"
     inkscape:window-height="1306"
     inkscape:window-x="-11"
     inkscape:window-y="-11"
     inkscape:window-maximized="1"
     inkscape:current-layer="layer1" />
  <defs
     id="defs2">
    <linearGradient
       inkscape:collect="always"
       id="linearGradient2249">
      <stop
         style="stop-color:#6a11cb;stop-opacity:1"
         offset="0"
         id="stop2245" />
      <stop
         style="stop-color:#2575fc;stop-opacity:1"
         offset="1"
         id="stop2247" />
    </linearGradient>
    <linearGradient
       inkscape:collect="always"
       xlink:href="#linearGradient2249"
       id="linearGradient2251"
       x1="17.787971"
       y1="67.733334"
       x2="117.6787"
       y2="67.733334"
       gradientUnits="userSpaceOnUse"
       gradientTransform="matrix(0.85000322,0,0,0.85000322,10.159781,10.15998)" />
  </defs>
  <g
     inkscape:label="图层 1"
     inkscape:groupmode="layer"
     id="layer1">
    <path
       id="path2"
       style="fill:url(#linearGradient2251);stroke-width:3.59832"
       d="M 79.260458,10.160145 C 84.067817,29.227653 62.342584,34.95998 54.462262,46.88481 49.079174,54.955847 56.960339,63.609976 67.920827,73.4154 63.6928,63.800683 49.270725,55.342054 67.920827,40.538551 91.183978,22.273474 79.260458,10.160145 79.260458,10.160145 Z m 14.45654,23.649117 c 0,0 -39.411685,9.804329 -20.570874,31.530998 5.5774,6.343845 -1.539124,12.112705 -1.539124,12.112705 0,0 14.230265,-7.304561 7.692111,-16.343538 C 73.340291,52.459064 68.719456,48.22774 93.716998,33.809262 Z m 6.947142,38.653854 c -1.376082,-0.0026 -2.836031,0.236708 -4.329223,0.762521 -1.345767,0.38506 -1.918637,1.535624 -1.918637,1.535624 0,0 0.771252,-0.384566 2.49845,-0.769559 6.92316,-1.342164 16.91848,9.416072 -4.613868,20.570868 h -0.007 c -0.194308,0.385052 -0.383023,0.576311 -0.383023,0.576311 25.689311,-6.6755 19.958661,-22.656097 8.753331,-22.675749 z m -47.301761,1.135018 c -2.794207,0.06239 -9.317313,0.635878 -16.814416,4.24138 -11.730538,5.768113 29.224693,8.269103 50.562742,2.691713 2.115812,-1.345775 5.190157,-2.691713 5.190157,-2.691713 0,0 -8.656017,1.53514 -17.306381,2.305175 -10.575468,0.76649 -21.918585,0.959789 -27.686696,0.189822 -13.409836,-1.72106 7.326361,-6.686916 7.474246,-6.722266 -0.0377,-0.0026 -0.523319,-0.03426 -1.419652,-0.01446 z m 1.419652,0.01446 c 0.0015,8.5e-5 0.0281,0 0.0281,0 l -0.0034,-0.0067 c 0,0 -0.024,0.0067 -0.02467,0.0067 z m -4.940664,13.075535 c -19.400863,6.537477 10.971368,13.840011 38.077555,5.76643 a 11.730528,11.730528 0 0 1 -4.613864,-2.881482 c -13.27061,2.687949 -20.959511,2.496374 -30.76495,1.535616 -7.461641,-0.769805 -2.74585,-4.38464 -2.698741,-4.420586 z m 2.88147,12.492224 c -17.689351,5.001637 10.77388,15.191377 33.26339,5.576677 a 36.055184,36.055184 0 0 1 -6.342741,-3.07835 c -9.99614,1.92149 -14.807099,2.11428 -23.838886,0.96282 -7.502503,-0.77005 -3.074736,-3.46127 -3.074736,-3.46127 z m -11.557495,8.430017 c -7.519627,-0.22121 -24.824573,7.28339 -10.187055,9.63536 45.86928,7.48564 83.690833,-3.22732 71.966443,-8.61981 0.18045,0.15568 3.02667,2.72749 -3.682657,4.77902 -12.881997,3.85022 -54.024224,5.00167 -65.560441,0 -4.037319,-1.72719 3.649486,-4.22885 6.114336,-4.61387 2.500829,-0.57576 3.851328,-0.57631 3.851328,-0.57631 -0.553278,-0.38458 -1.427729,-0.57281 -2.501954,-0.60441 z m 61.779388,1.01555 c -0.006,-0.005 -0.0316,-0.028 -0.0316,-0.028 h -0.028 c 0.0212,0.01 0.0389,0.0184 0.0598,0.028 z m 7.24232,5.73482 c 0,0 -1.53606,3.85063 -17.109598,6.72929 -17.689347,3.26728 -39.606421,2.87819 -52.488412,0.76954 0,0 2.691516,2.30464 16.343557,3.07826 v 0.003 c 20.76231,1.34576 52.488013,-0.7716 53.254453,-10.58062 z" />
  </g>
</svg>
